<svg xmlns="http://www.w3.org/2000/svg" width="298" height="41" viewBox="0 0 298 41">
  <g id="buttons_social_media" data-name="buttons_social media" transform="translate(-136 -327)">
    <g id="behance" transform="translate(-3 -19)">
      <rect id="bg" width="41" height="41" transform="translate(139 346)" fill="#1869ff"/>
      <text id="behance-2" data-name="behance" transform="translate(146 376)" fill="#fff" font-size="23" font-family="SegoeUI, Segoe UI"><tspan x="0" y="0"></tspan></text>
    </g>
    <g id="facebook" transform="translate(101 -19)">
      <rect id="bg-2" data-name="bg" width="41" height="41" transform="translate(189 346)" fill="#3a5898"/>
      <text id="facebook-2" data-name="facebook" transform="translate(202 376)" fill="#fff" font-size="23" font-family="SegoeUI, Segoe UI"><tspan x="0" y="0"></tspan></text>
    </g>
    <g id="twitter" transform="translate(150 -19)">
      <path id="bg-3" data-name="bg" d="M0,0H41V41H0Z" transform="translate(243 346)" fill="#56acef"/>
      <text id="twitter-2" data-name="twitter" transform="translate(252 377)" fill="#fff" font-size="25" font-family="SegoeUI, Segoe UI"><tspan x="0" y="0"></tspan></text>
    </g>
    <g id="instagram" transform="translate(46 -19)">
      <path id="bg-4" data-name="bg" d="M0,0H41V41H0Z" transform="translate(296 346)" fill="#13578a"/>
      <text id="instagram-2" data-name="instagram" transform="translate(305 377)" fill="#fff" font-size="26" font-family="SegoeUI, Segoe UI"><tspan x="0" y="0"></tspan></text>
    </g>
    <g id="dribbble" transform="translate(-161 -19)">
      <path id="bg-5" data-name="bg" d="M0,0H41V41H0Z" transform="translate(348 346)" fill="#e51a68"/>
      <text id="dribbble-2" data-name="dribbble" transform="translate(358 376)" fill="#fff" font-size="25" font-family="SegoeUI, Segoe UI"><tspan x="0" y="0"></tspan></text>
    </g>
    <g id="in" transform="translate(-161 -19)">
      <path id="bg-6" data-name="bg" d="M0,0H41V41H0Z" transform="translate(400 346)" fill="#007bb6"/>
      <text id="in-2" data-name="in" transform="translate(411 375)" fill="#fff" font-size="24" font-family="SegoeUI, Segoe UI"><tspan x="0" y="0"></tspan></text>
    </g>
  </g>
</svg>
